<svg width="318" height="67" viewBox="0 0 318 67" fill="none" xmlns="http://www.w3.org/2000/svg">
<path d="M5.50972 43.9478C4.83939 42.7636 4.24928 41.5358 3.74337 40.2724C2.17053 36.4297 0.979143 32.4818 0.373777 28.3611C-0.46655 22.7007 0.000603437 17.2409 2.90305 12.1947C6.8946 5.2562 12.9165 1.17553 20.8291 0.200323C28.2483 -0.715406 34.7276 1.5255 40.1884 6.57169C40.6338 6.98704 40.926 7.54075 41.0177 8.14309C42.2795 16.2615 37.4242 24.0687 28.7859 25.6899C27.2232 25.9817 25.6291 26.0686 24.0439 25.9486C15.1265 25.2819 7.54005 31.1608 5.93817 39.9709C5.70599 41.2853 5.56284 42.614 5.50972 43.9478Z" fill="#2F6370"/>
<path d="M44.1302 11.5432C45.3741 13.2792 46.043 14.863 46.647 16.8619C47.8688 20.901 47.8273 24.9831 47.146 29.1039C45.8482 36.9512 42.6638 44.0336 38.4386 50.6899C34.8969 56.2392 30.7505 61.3777 26.0756 66.0111C24.7902 67.2947 23.0695 67.31 21.7841 66.0373C17.2287 61.4969 13.1492 56.5022 9.60908 51.1312L9.57867 51.0827C7.63542 47.8016 8.0155 47.8514 8.33477 46.5539C8.47298 45.9577 8.63054 45.3643 8.81574 44.7805C10.4743 39.5739 13.1003 35.644 18.4671 33.695C20.2928 33.0324 22.214 32.8249 24.16 32.8581C25.7135 32.8844 27.267 32.9881 28.8191 32.8014C34.2287 32.1485 38.3433 29.4483 41.2858 24.907C42.9084 22.4033 43.728 19.6229 44.05 16.6738C44.2325 15.0055 44.5047 13.9072 44.2338 12.2473C44.2076 12.1089 44.1371 11.6884 44.1302 11.5432Z" fill="#A77746"/>
<path d="M113.173 5.67394C113.336 5.97493 113.479 6.28688 113.599 6.60754C114.004 7.56794 114.291 8.57474 114.451 9.60531C114.718 11.0046 114.492 12.4535 113.812 13.7037C113.362 14.5026 112.738 15.1886 111.987 15.7102C111.235 16.2318 110.376 16.5754 109.473 16.7151C108.57 16.8549 107.648 16.7871 106.775 16.517C105.902 16.2468 105.102 15.7813 104.434 15.1554C104.32 15.0507 104.247 14.9101 104.225 14.7572C104.136 14.2613 104.145 13.7527 104.252 13.2605C104.359 12.7683 104.562 12.3021 104.848 11.8888C105.135 11.4754 105.5 11.123 105.922 10.8516C106.345 10.5803 106.816 10.3954 107.31 10.3076C107.706 10.2313 108.11 10.2082 108.511 10.2391C109.579 10.3327 110.642 10.0189 111.489 9.36018C112.336 8.70148 112.905 7.74622 113.084 6.68463C113.135 6.35005 113.165 6.01243 113.173 5.67394Z" fill="#2F6370"/>
<path d="M103.397 13.8878C103.109 13.4789 102.894 13.0224 102.762 12.5388C102.481 11.5292 102.438 10.4673 102.639 9.43826C102.993 7.48314 103.74 5.62097 104.833 3.9652C105.645 2.68894 106.583 1.49811 107.633 0.410713C107.745 0.293637 107.881 0.200551 108.03 0.136978C108.179 0.0734048 108.34 0.040645 108.502 0.040645C108.664 0.040645 108.825 0.0734048 108.974 0.136978C109.123 0.200551 109.258 0.293637 109.371 0.410713C110.389 1.47282 111.308 2.62682 112.115 3.85813C112.597 4.68038 112.512 4.68038 112.431 4.99729C112.401 5.12148 112.375 5.2414 112.337 5.36559C111.911 6.73171 111.259 7.7638 109.87 8.26914C109.408 8.42665 108.921 8.49777 108.434 8.47898C108.042 8.45329 107.649 8.45329 107.258 8.47898C106.609 8.54701 105.986 8.76587 105.436 9.11822C104.887 9.47056 104.426 9.94669 104.092 10.5089C103.713 11.1268 103.481 11.8245 103.414 12.5474C103.34 12.9223 103.323 13.3064 103.363 13.6865C103.379 13.7527 103.391 13.82 103.397 13.8878Z" fill="#2F6370"/>
<path d="M93.5438 35.8147L91.2428 35.7248C89.5384 33.2923 87.5002 32.1046 85.1282 32.1617C82.117 32.2217 79.3104 33.3209 76.7083 35.4593V41.883C76.7083 46.7537 76.8262 51.4445 77.062 55.9554C77.1813 58.3336 77.2708 59.6398 77.3304 59.8739C77.4407 60.5023 77.7359 61.0831 78.178 61.5411C78.6201 61.9992 79.1887 62.3135 79.8103 62.4434C81.0633 62.7008 82.3483 62.7614 83.6198 62.6233V65.7409H60.8486V62.6233H61.2747C63.4961 62.6233 64.9946 62.2964 65.7701 61.6426C66.5456 60.9888 66.9348 59.4742 66.9377 57.0988V35.1937C66.9377 32.6985 66.4959 31.1282 65.6125 30.483C64.9591 30.069 63.364 29.862 60.8273 29.862V26.7443C63.1254 26.6844 67.868 25.8821 75.055 24.3376C75.9981 24.8743 76.5279 26.2104 76.6444 28.346C76.704 29.832 76.7339 31.3438 76.7339 32.8897C79.6172 28.9727 81.1796 26.8942 81.421 26.6544C83.4237 24.4589 85.6622 23.3611 88.1365 23.3611C90.0087 23.3161 91.8623 23.7446 93.5267 24.6073C93.4784 28.3388 93.4841 32.0746 93.5438 35.8147Z" fill="#2F6370"/>
<path d="M119.775 65.7409H97.5236L97.6131 62.7089H98.6912C100.549 62.7089 101.778 62.4734 102.377 62.0023C103.229 61.407 103.655 60.1951 103.655 58.3579V37.8318C103.655 34.0432 103.505 31.8805 103.204 31.3438C102.607 30.4587 100.63 29.9848 97.2722 29.922V26.8129C101.928 26.1521 106.544 25.2328 111.099 24.0592C112.633 24.239 113.4 25.3354 113.4 27.3482V58.7133C113.4 60.4891 114.081 61.644 115.441 62.1779C116.089 62.4134 117.538 62.6061 119.783 62.7089L119.775 65.7409Z" fill="#2F6370"/>
<path d="M151.584 63.514C147.323 65.6524 143.616 66.7202 140.462 66.7174C133.048 66.7174 129.341 62.7503 129.341 54.8162V29.8492H123.584V26.4231L129.976 24.5731L132.464 12.6591H139.465L139.112 25.4853H151.341V29.8492H139.112V53.3602C139.112 58.8789 141.593 61.6397 146.556 61.6426C147.323 61.6426 148.977 61.3756 151.52 60.8417L151.584 63.514Z" fill="#2F6370"/>
<path d="M233.026 65.7409H212.198V62.6233C215.623 62.6233 217.336 61.9381 217.336 60.5676V38.153C217.336 32.2602 214.973 29.3138 210.246 29.3138C205.814 29.3138 202.714 31.5108 200.944 35.9046V60.3964C200.944 61.8838 202.715 62.6261 206.258 62.6233V65.7409H186.231V62.6233C187.298 62.6694 188.367 62.6092 189.422 62.4434C190.72 62.2036 191.371 61.5469 191.374 60.4734V37.9988C191.374 32.5029 189.188 29.7264 184.816 29.6693C181.211 29.615 177.991 31.7877 175.156 36.1873V60.4777C175.156 61.9052 176.929 62.619 180.474 62.619V65.7367H159.735V62.619H160.349C163.658 62.619 165.314 61.7868 165.317 60.1223V35.1038C165.317 32.6085 164.881 31.064 164.009 30.4701C163.432 30.1075 161.832 29.8706 159.207 29.7592V26.7315C160.911 26.6715 165.282 25.7808 172.318 24.0592C173.797 24.4103 174.653 25.2326 174.875 26.5174C174.935 26.5773 174.994 27.8949 175.054 30.4701C178.247 28.0376 180.403 26.4945 181.522 25.8407C184.121 24.299 186.633 23.5267 189.056 23.5239C193.956 23.5239 197.589 26.1362 199.956 31.3609C205.094 26.1362 210.057 23.5239 214.844 23.5239C218.741 23.5239 221.842 25.0413 224.146 28.0762C226.214 30.8712 227.248 34.2973 227.248 38.3542V60.4049C227.248 61.4156 228.016 62.0694 229.553 62.3663C229.789 62.4263 230.941 62.5162 233.009 62.6361L233.026 65.7409Z" fill="#2F6370"/>
<path d="M280.43 44.9879C280.43 51.3974 278.45 56.6377 274.49 60.709C270.53 64.7802 265.362 66.813 258.984 66.8073C252.607 66.8073 247.482 64.7745 243.61 60.709C239.738 56.6434 237.804 51.3788 237.807 44.915C237.807 38.5655 239.815 33.4265 243.832 29.498C247.849 25.5695 253.017 23.6109 259.338 23.6224C265.542 23.6224 270.608 25.6209 274.537 29.6179C278.466 33.6149 280.43 38.7382 280.43 44.9879ZM269.705 45.1677C269.705 40.6539 269.056 36.7997 267.758 33.6049C265.925 29.271 263.085 27.1041 259.236 27.1041C255.278 27.1041 252.354 29.2453 250.462 33.5278C249.101 36.6683 248.422 40.5583 248.425 45.1977C248.428 49.8371 249.118 53.7399 250.496 56.9061C252.328 61.3 255.223 63.4969 259.18 63.4969C263.197 63.4969 266.092 61.3 267.864 56.9061C269.094 53.8312 269.708 49.9185 269.705 45.1677Z" fill="#2F6370"/>
<path d="M318 53.9083C318 58.0624 316.375 61.3271 313.125 63.7025C310.233 65.9008 306.66 67 302.404 67C299.886 66.9491 297.372 66.7704 294.871 66.4647C292.374 66.1211 289.861 65.9124 287.342 65.8394L287.606 53.373H291.151C291.566 57.1702 292.526 59.8125 294.031 61.3C295.537 62.7874 298.15 63.5297 301.872 63.5269C303.733 63.5582 305.547 62.9442 307.011 61.7882C307.719 61.2588 308.291 60.5655 308.677 59.7671C309.062 58.9688 309.251 58.0888 309.226 57.2016C309.226 54.8291 307.425 52.5736 303.823 50.4352C300.454 48.5338 297.057 46.6338 293.631 44.7352C290.026 42.1828 288.224 39.2136 288.224 35.8275C288.224 31.7277 289.848 28.5872 293.098 26.406C295.939 24.5046 299.514 23.5538 303.823 23.5538C306.048 23.6313 308.266 23.84 310.466 24.1791C312.433 24.4989 314.416 24.702 316.406 24.7872C316.227 26.8685 316.256 30.61 316.492 36.0117H312.593C312.377 33.8536 311.512 31.8127 310.113 30.1618C309.419 29.3313 308.55 28.6661 307.569 28.2143C306.589 27.7625 305.52 27.5354 304.441 27.5494C302.764 27.5248 301.111 27.9553 299.656 28.7956C297.952 29.7464 297.099 31.0525 297.099 32.7142C297.099 35.1495 298.902 37.3764 302.507 39.3949L312.593 44.9151C316.198 47.4018 318 50.3995 318 53.9083Z" fill="#2F6370"/>
</svg>
